<?xml version="1.0" standalone="no"?>
<!DOCTYPE svg PUBLIC "-//W3C//DTD SVG 20010904//EN"
 "http://www.w3.org/TR/2001/REC-SVG-20010904/DTD/svg10.dtd">
<svg version="1.0" xmlns="http://www.w3.org/2000/svg"
 width="256.000000pt" height="256.000000pt" viewBox="0 0 256.000000 256.000000"
 preserveAspectRatio="xMidYMid meet">

<g transform="translate(0.000000,256.000000) scale(0.100000,-0.100000)"
fill="#fff" stroke="none">
<path d="M1185 2541 c-56 -27 -1138 -1112 -1160 -1163 -21 -51 -19 -143 4
-194 35 -77 126 -134 215 -134 l36 0 0 -406 c0 -273 4 -419 11 -444 19 -64 78
-131 144 -165 l59 -30 249 0 249 0 24 28 24 28 0 327 c0 310 1 329 20 360 32
51 70 62 225 62 155 0 193 -11 225 -62 19 -31 20 -50 20 -360 l0 -327 24 -28
24 -28 249 0 248 0 57 28 c61 30 95 64 131 131 22 40 22 50 25 464 l3 422 36
0 c88 0 179 57 214 134 23 51 25 143 4 194 -22 51 -1104 1136 -1160 1163 -25
12 -62 19 -100 19 -38 0 -75 -7 -100 -19z m682 -674 c526 -525 543 -543 543
-580 0 -27 -7 -45 -25 -62 -22 -23 -32 -25 -110 -25 -78 0 -88 -2 -110 -25
l-25 -24 0 -447 c0 -392 -2 -450 -16 -480 -29 -62 -56 -69 -259 -69 l-180 0
-5 300 c-5 289 -6 302 -28 347 -31 63 -102 124 -165 143 -70 21 -334 21 -404
0 -60 -18 -135 -80 -166 -139 -21 -39 -22 -56 -27 -346 l-5 -305 -175 0 c-196
0 -227 7 -260 60 -19 31 -20 49 -20 484 l0 452 -25 24 c-22 23 -32 25 -110 25
-78 0 -88 2 -110 25 -18 17 -25 35 -25 62 0 37 17 55 543 580 535 535 543 543
582 543 39 0 47 -8 582 -543z"/>
</g>
</svg>
