<?xml version="1.0" standalone="no"?>
<!DOCTYPE svg PUBLIC "-//W3C//DTD SVG 20010904//EN"
 "http://www.w3.org/TR/2001/REC-SVG-20010904/DTD/svg10.dtd">
<svg version="1.0" xmlns="http://www.w3.org/2000/svg"
 width="1056.000000pt" height="1016.000000pt" viewBox="0 0 1056.000000 1016.000000"
 preserveAspectRatio="xMidYMid meet">

<g transform="translate(0.000000,1016.000000) scale(0.100000,-0.100000)"
fill="#fff" stroke="none">
<path d="M9451 9766 c-47 -17 -107 -70 -115 -102 -7 -26 20 -94 40 -101 5 -1
52 21 104 50 l95 53 -1 39 c-3 66 -48 88 -123 61z"/>
<path d="M9152 9608 c-85 -41 -116 -115 -71 -172 l21 -26 99 52 c97 52 99 54
99 88 0 78 -59 101 -148 58z"/>
<path d="M9635 9608 c-101 -28 -277 -118 -710 -363 -58 -33 -87 -49 -170 -95
-33 -18 -116 -65 -185 -103 -69 -39 -233 -125 -364 -193 -132 -67 -252 -134
-267 -148 -26 -24 -27 -31 -31 -138 -3 -102 -6 -118 -33 -168 -42 -79 -433
-468 -1310 -1305 -115 -110 -322 -308 -460 -440 -138 -132 -441 -422 -675
-645 -616 -588 -668 -638 -855 -821 -209 -204 -239 -222 -370 -223 -71 0 -100
4 -135 20 -72 34 -145 107 -182 181 -28 57 -33 79 -36 158 -9 191 65 336 274
540 57 55 108 113 113 128 35 92 -26 185 -143 219 -57 16 -200 14 -267 -5
-205 -56 -403 -199 -584 -422 -108 -133 -195 -276 -307 -505 -219 -450 -301
-588 -434 -729 -162 -173 -243 -214 -649 -330 -344 -98 -647 -248 -969 -479
-240 -173 -409 -396 -477 -632 -33 -116 -38 -351 -10 -487 100 -485 451 -1000
1061 -1556 582 -530 912 -694 1284 -637 90 14 281 74 379 119 136 64 336 237
461 400 75 98 174 255 235 374 76 148 130 288 197 512 132 441 253 659 439
790 55 38 112 64 309 140 194 74 439 215 570 328 117 102 221 256 260 386 50
170 -22 323 -164 349 -74 13 -106 1 -179 -71 -125 -121 -205 -162 -321 -162
-63 1 -86 6 -140 31 -36 17 -86 49 -112 70 -107 90 -212 260 -225 364 l-6 50
184 188 c102 103 330 338 509 522 178 184 413 425 520 535 108 110 346 355
530 545 184 189 506 520 715 735 208 214 449 462 535 550 346 357 700 711 776
779 93 81 164 127 250 158 49 19 82 23 203 25 79 1 155 4 168 8 70 17 139 105
336 425 175 284 234 368 285 403 39 28 91 37 137 23 150 -43 242 -26 340 65
110 101 139 235 81 373 -21 51 -100 131 -152 155 -61 29 -144 32 -229 9z
m-5765 -4814 c36 -31 61 -77 84 -153 l16 -55 -115 -116 c-66 -67 -115 -125
-115 -136 0 -43 70 -135 209 -277 80 -82 158 -155 173 -163 43 -22 73 -17 118
21 51 42 51 42 123 -65 120 -179 213 -285 307 -350 77 -52 140 -72 230 -72
111 0 190 33 330 138 74 56 112 74 154 74 111 0 76 -179 -68 -352 -142 -169
-410 -334 -686 -423 -183 -59 -277 -112 -377 -211 -121 -121 -234 -330 -372
-684 -179 -461 -218 -554 -281 -685 -113 -236 -216 -345 -327 -345 -106 0
-166 135 -179 407 -17 367 -109 598 -317 801 l-55 54 30 30 c30 31 48 67 48
96 0 9 -132 148 -292 309 -216 216 -299 293 -316 293 -33 0 -75 -24 -105 -60
l-26 -30 -36 43 c-20 23 -51 71 -68 107 -30 60 -32 72 -32 170 0 102 1 107 40
185 31 63 59 100 130 170 146 145 271 223 750 462 262 130 348 182 452 269
111 95 214 218 313 374 123 196 185 237 260 174z"/>
<path d="M3434 4156 c-29 -29 -34 -41 -34 -82 l0 -49 248 -247 c240 -241 249
-248 287 -248 48 0 102 31 115 66 6 14 10 42 10 62 0 34 -15 51 -232 270 -128
128 -245 240 -260 248 -48 25 -96 18 -134 -20z"/>
<path d="M2988 3696 c-63 -21 -95 -104 -64 -164 25 -47 468 -480 499 -488 40
-9 102 11 126 43 31 39 28 100 -8 149 -15 21 -125 134 -242 250 -229 225 -240
233 -311 210z"/>
<path d="M2562 3249 c-66 -14 -108 -87 -85 -148 5 -14 89 -147 186 -294 186
-283 203 -300 270 -293 61 7 113 72 104 131 -6 34 -346 560 -380 587 -27 21
-53 26 -95 17z"/>
<path d="M3093 2405 c-95 -40 -98 -173 -5 -218 45 -22 112 -8 142 30 76 97
-25 235 -137 188z"/>
<path d="M3320 1899 c-53 -11 -90 -59 -90 -115 0 -40 5 -51 38 -85 35 -35 43
-38 82 -34 55 6 88 28 106 71 38 90 -41 184 -136 163z"/>
<path d="M3318 1390 c-43 -8 -64 -23 -84 -61 -42 -82 24 -184 114 -173 95 11
142 108 90 184 -28 40 -71 58 -120 50z"/>
<path d="M8924 9480 c-44 -10 -117 -61 -132 -93 -15 -32 -9 -72 16 -104 l17
-21 104 55 103 56 -6 35 c-9 60 -44 84 -102 72z"/>
<path d="M8635 9327 c-53 -21 -93 -46 -109 -69 -22 -31 -20 -88 4 -118 l20
-25 97 52 c92 48 98 53 101 85 6 64 -49 100 -113 75z"/>
<path d="M8335 9171 c-99 -49 -132 -119 -82 -177 l23 -27 90 48 c111 59 116
64 108 101 -13 68 -68 90 -139 55z"/>
<path d="M8050 9016 c-87 -46 -114 -97 -82 -155 10 -19 23 -36 28 -38 5 -1 52
21 104 50 94 53 95 53 94 90 -3 76 -59 97 -144 53z"/>
</g>
</svg>
